<svg width="40" height="40" viewBox="0 0 40 40" fill="none" xmlns="http://www.w3.org/2000/svg">
<g clip-path="url(#clip0_835_2697)">
<path d="M20 3.60333C25.34 3.60333 25.9733 3.62333 28.0817 3.72C30.2617 3.82 32.5067 4.31667 34.095 5.905C35.6983 7.50833 36.18 9.73167 36.28 11.9183C36.3767 14.0267 36.3967 14.66 36.3967 20C36.3967 25.34 36.3767 25.9733 36.28 28.0817C36.1817 30.25 35.6733 32.5167 34.095 34.095C32.4917 35.6983 30.27 36.18 28.0817 36.28C25.9733 36.3767 25.34 36.3967 20 36.3967C14.66 36.3967 14.0267 36.3767 11.9183 36.28C9.76667 36.1817 7.47 35.6617 5.905 34.095C4.31 32.5 3.82 30.255 3.72 28.0817C3.62333 25.9733 3.60333 25.34 3.60333 20C3.60333 14.66 3.62333 14.0267 3.72 11.9183C3.81833 9.75833 4.33167 7.47833 5.905 5.905C7.505 4.305 9.73667 3.82 11.9183 3.72C14.0267 3.62333 14.66 3.60333 20 3.60333ZM20 0C14.5683 0 13.8867 0.0233333 11.7533 0.12C8.66167 0.261667 5.59167 1.12167 3.35667 3.35667C1.11333 5.6 0.261667 8.66333 0.12 11.7533C0.0233333 13.8867 0 14.5683 0 20C0 25.4317 0.0233333 26.1133 0.12 28.2467C0.261667 31.335 1.125 34.4133 3.35667 36.6433C5.59833 38.885 8.66667 39.7383 11.7533 39.88C13.8867 39.9767 14.5683 40 20 40C25.4317 40 26.1133 39.9767 28.2467 39.88C31.3367 39.7383 34.41 38.8767 36.6433 36.6433C38.8883 34.3983 39.7383 31.3367 39.88 28.2467C39.9767 26.1133 40 25.4317 40 20C40 14.5683 39.9767 13.8867 39.88 11.7533C39.7383 8.66167 38.8767 5.59 36.6433 3.35667C34.405 1.11833 31.3283 0.26 28.2467 0.12C26.1133 0.0233333 25.4317 0 20 0Z" fill="#F8F8F8"/>
<path d="M20.0024 9.72852C14.3308 9.72852 9.73242 14.3268 9.73242 19.9985C9.73242 25.6702 14.3308 30.2685 20.0024 30.2685C25.6741 30.2685 30.2724 25.6702 30.2724 19.9985C30.2724 14.3268 25.6741 9.72852 20.0024 9.72852ZM20.0024 26.6652C16.3208 26.6652 13.3358 23.6802 13.3358 19.9985C13.3358 16.3168 16.3208 13.3318 20.0024 13.3318C23.6841 13.3318 26.6691 16.3168 26.6691 19.9985C26.6691 23.6802 23.6841 26.6652 20.0024 26.6652Z" fill="#F8F8F8"/>
<path d="M30.6793 11.7219C32.0048 11.7219 33.0793 10.6474 33.0793 9.32188C33.0793 7.99639 32.0048 6.92188 30.6793 6.92188C29.3538 6.92188 28.2793 7.99639 28.2793 9.32188C28.2793 10.6474 29.3538 11.7219 30.6793 11.7219Z" fill="#F8F8F8"/>
</g>
<defs>
<clipPath id="clip0_835_2697">
<rect width="40" height="40" fill="white"/>
</clipPath>
</defs>
</svg>
