<svg width="30" height="30" viewBox="0 0 30 30" fill="none" xmlns="http://www.w3.org/2000/svg">
<path d="M15.4824 2.77746C19.3539 2.77746 19.8131 2.79196 21.3416 2.86204C22.9221 2.93454 24.5498 3.29462 25.7013 4.44616C26.8637 5.60858 27.2129 7.2205 27.2854 8.80583C27.3555 10.3344 27.37 10.7935 27.37 14.665C27.37 18.5365 27.3555 18.9957 27.2854 20.5243C27.2141 22.0963 26.8456 23.7396 25.7013 24.8839C24.5389 26.0463 22.9282 26.3955 21.3416 26.468C19.8131 26.5381 19.3539 26.5526 15.4824 26.5526C11.6109 26.5526 11.1518 26.5381 9.62321 26.468C8.06326 26.3967 6.39817 26.0197 5.26355 24.8839C4.10717 23.7275 3.75192 22.0999 3.67942 20.5243C3.60934 18.9957 3.59484 18.5365 3.59484 14.665C3.59484 10.7935 3.60934 10.3344 3.67942 8.80583C3.75071 7.23983 4.12288 5.58683 5.26355 4.44616C6.42355 3.28616 8.04151 2.93454 9.62321 2.86204C11.1518 2.79196 11.6109 2.77746 15.4824 2.77746ZM15.4824 0.165039C11.5445 0.165039 11.0503 0.181956 9.50359 0.252039C7.26213 0.354747 5.03638 0.978247 3.41601 2.59862C1.78959 4.22504 1.17213 6.44596 1.06942 8.68621C0.999339 10.2329 0.982422 10.7271 0.982422 14.665C0.982422 18.603 0.999339 19.0972 1.06942 20.6439C1.17213 22.8829 1.79805 25.1147 3.41601 26.7315C5.04121 28.3567 7.26576 28.9753 9.50359 29.078C11.0503 29.1481 11.5445 29.165 15.4824 29.165C19.4204 29.165 19.9146 29.1481 21.4613 29.078C23.7015 28.9753 25.9297 28.3506 27.5488 26.7315C29.1765 25.1038 29.7927 22.8841 29.8954 20.6439C29.9655 19.0972 29.9824 18.603 29.9824 14.665C29.9824 10.7271 29.9655 10.2329 29.8954 8.68621C29.7927 6.44475 29.168 4.21779 27.5488 2.59862C25.926 0.975831 23.6955 0.353539 21.4613 0.252039C19.9146 0.181956 19.4204 0.165039 15.4824 0.165039Z" fill="#141414"/>
<path d="M15.4829 7.21924C11.3709 7.21924 8.03711 10.553 8.03711 14.665C8.03711 18.7769 11.3709 22.1107 15.4829 22.1107C19.5948 22.1107 22.9286 18.7769 22.9286 14.665C22.9286 10.553 19.5948 7.21924 15.4829 7.21924ZM15.4829 19.4983C12.8137 19.4983 10.6495 17.3342 10.6495 14.665C10.6495 11.9958 12.8137 9.83166 15.4829 9.83166C18.1521 9.83166 20.3162 11.9958 20.3162 14.665C20.3162 17.3342 18.1521 19.4983 15.4829 19.4983Z" fill="#141414"/>
<path d="M23.2244 8.66408C24.1854 8.66408 24.9644 7.88506 24.9644 6.92408C24.9644 5.96311 24.1854 5.18408 23.2244 5.18408C22.2634 5.18408 21.4844 5.96311 21.4844 6.92408C21.4844 7.88506 22.2634 8.66408 23.2244 8.66408Z" fill="#141414"/>
</svg>
