<svg width="29" height="30" viewBox="0 0 29 30" fill="none" xmlns="http://www.w3.org/2000/svg">
<path d="M24.6944 24.8694H20.3999V18.1442C20.3999 16.5404 20.3714 14.4767 18.1663 14.4767C15.9298 14.4767 15.587 16.2233 15.587 18.0285V24.8694H11.2939V11.0391H15.4171V12.9285H15.4742C16.3154 11.4918 17.8778 10.6335 19.5416 10.6949C23.8946 10.6949 24.6958 13.5583 24.6958 17.2816L24.6944 24.8694ZM6.44817 9.14817C5.07142 9.14817 3.95602 8.03277 3.95602 6.65602C3.95602 5.27927 5.07142 4.16387 6.44817 4.16387C7.82492 4.16387 8.94032 5.27927 8.94032 6.65602C8.94032 8.03277 7.82492 9.14817 6.44817 9.14817ZM8.5947 24.8694H4.29592V11.0391H8.5947V24.8694ZM26.8352 0.176428H2.13796C0.971153 0.163574 0.0142817 1.09902 0 2.26583V27.0645C0.0142817 28.2327 0.971153 29.1682 2.13796 29.1553H26.8352C28.0049 29.1696 28.9661 28.2342 28.9818 27.0645V2.26441C28.9646 1.09474 28.0035 0.15929 26.8352 0.175" fill="#141414"/>
</svg>
