<svg width="40" height="40" viewBox="0 0 40 40" fill="none" xmlns="http://www.w3.org/2000/svg">
<g clip-path="url(#clip0_839_101)">
<path d="M34.0812 34.0913H28.1526V24.807C28.1526 22.5929 28.1132 19.7439 25.069 19.7439C21.9815 19.7439 21.5083 22.1552 21.5083 24.6473V34.0913H15.5817V14.9983H21.2737V17.6067H21.3526C22.5138 15.6233 24.6708 14.4383 26.9677 14.5231C32.9771 14.5231 34.0832 18.4762 34.0832 23.6161L34.0812 34.0913ZM8.89203 12.3879C6.9914 12.3879 5.45158 10.848 5.45158 8.94741C5.45158 7.04678 6.9914 5.50696 8.89203 5.50696C10.7927 5.50696 12.3325 7.04678 12.3325 8.94741C12.3325 10.848 10.7927 12.3879 8.89203 12.3879ZM11.8553 34.0913H5.92082V14.9983H11.8553V34.0913ZM37.0367 0.00224091H2.94173C1.33093 -0.0155035 0.00995042 1.2759 -0.00976562 2.8867V37.1216C0.00995042 38.7344 1.33093 40.0258 2.94173 40.0081H37.0367C38.6514 40.0278 39.9783 38.7364 40 37.1216V2.88473C39.9763 1.26998 38.6495 -0.0214184 37.0367 0.000269213" fill="#F8F8F8"/>
</g>
<defs>
<clipPath id="clip0_839_101">
<rect width="40" height="40" fill="white"/>
</clipPath>
</defs>
</svg>
